<svg  viewBox="0 0 118 35" fill="none" xmlns="http://www.w3.org/2000/svg">
<path d="M20.0484 10.5H10.2544C10.2544 12.0268 11.4921 13.2645 13.0188 13.2645H16.1782L10.2544 21.7948V24.3618H17.284C18.8107 24.3618 20.0484 23.1241 20.0484 21.5973H14.0851L20.0484 13.067V10.5Z" fill="#111029"/>
<path d="M29.1958 18.7736C29.1958 22.6044 31.7036 24.5 34.9222 24.5C38.121 24.5 40.8065 22.6044 40.8065 18.7736V10.5C38.9417 10.5 37.4299 12.0117 37.4299 13.8766V18.7934C37.4299 20.4323 36.5809 21.3801 34.9814 21.3801C33.382 21.3801 32.5724 20.4323 32.5724 18.7934V13.8766C32.5724 12.0118 31.0606 10.5 29.1958 10.5V18.7736Z" fill="#111029"/>
<path d="M50.1785 24.3618C52.0433 24.3618 53.5551 22.85 53.5551 20.9852V16.0289L56.675 24.3618H59.3999L62.5001 16.0487V20.9852C62.5001 22.85 64.0118 24.3618 65.8767 24.3618V10.5H61.9077L58.0572 20.0966L54.1672 10.5H50.1785V24.3618Z" fill="#111029"/>
<path d="M83.9348 21.9133C84.4305 23.3769 85.804 24.3618 87.3493 24.3618H88.3382L83.3226 10.5H79.4129L74.3974 24.3618H75.3468C76.8921 24.3618 78.2655 23.3769 78.7613 21.9133H83.9348ZM83.0659 19.3068H79.6499L81.348 14.232L83.0659 19.3068Z" fill="#111029"/>
<path d="M104.191 15.0021C104.191 16.0882 103.599 16.7398 102.335 16.7398H100.242V13.3039H102.335C103.599 13.3039 104.191 13.9753 104.191 15.0021ZM96.8655 10.5V24.3618H100.242V19.1291H101.052L102.096 21.0238C103.23 23.0829 105.395 24.3618 107.746 24.3618L104.547 18.8724C106.679 18.2405 107.627 16.6016 107.627 14.8639C107.627 12.4549 105.929 10.5 102.533 10.5H96.8655Z" fill="#111029"/>
</svg>
